<svg xmlns="http://www.w3.org/2000/svg" width="250" height="100" viewBox="0 0 250 100" fill="none">
  <path d="M134.375 70.8533C133.595 70.7503 132.812 70.672 132.037 70.5443C125.421 69.4561 120.219 64.0332 119.413 57.4235C118.891 53.1379 120.132 49.3405 122.651 45.9304C126.757 40.3708 130.911 34.8448 135.055 29.3143C135.167 29.1643 135.396 29.0143 135.57 29.0121C138.062 28.9941 140.554 29.0009 143.046 29.0031C143.076 29.0031 143.102 29.0255 143.187 29.0636C140.321 32.7647 137.464 36.4524 134.565 40.1962C134.737 40.2297 134.843 40.27 134.946 40.2656C138.931 40.0887 142.399 41.3985 145.339 44.0294C148.962 47.2716 150.717 51.378 150.5 56.23C150.2 62.8868 145.534 68.5404 139.041 70.2264C137.991 70.4995 136.891 70.5869 135.814 70.7638C135.669 70.7884 135.528 70.8265 135.384 70.8578C135.049 70.8533 134.71 70.8533 134.375 70.8533ZM134.816 64.7698C135.416 64.6982 136.025 64.678 136.611 64.5504C140.516 63.6995 143.21 60.7283 143.705 56.7473C144.39 51.2369 140.431 45.9886 134.377 46.3133C132.111 46.4342 130.149 47.276 128.605 48.9397C126.33 51.3892 125.703 54.3201 126.289 57.5466C127.051 61.7381 130.606 64.7183 134.816 64.7698Z" fill="white"/>
  <path d="M98.3749 41.815C98.3749 41.0895 98.3749 40.476 98.3749 39.8245C100.589 39.8245 102.748 39.8245 104.942 39.8245C104.942 49.8845 104.942 59.9312 104.942 70.007C102.766 70.007 100.618 70.007 98.3996 70.007C98.3996 69.2882 98.3996 68.5762 98.3996 67.741C93.7132 70.8511 88.7918 71.6258 83.5681 69.7942C80.2946 68.6456 77.6928 66.5588 75.7403 63.6928C71.9048 58.0616 72.113 50.4757 76.2553 45.1154C78.8929 41.703 82.3523 39.6297 86.6266 38.9848C90.8763 38.3422 94.7611 39.352 98.3749 41.815ZM88.9575 64.1361C94.1364 64.1473 98.3637 59.9737 98.3884 54.8261C98.413 49.6606 94.1767 45.4109 89.0045 45.4064C83.8681 45.4042 79.6228 49.6114 79.6139 54.7142C79.6049 59.9536 83.7382 64.1227 88.9575 64.1361Z" fill="white"/>
  <path d="M161.122 63.966C166.138 63.966 171.028 63.966 175.969 63.966C175.969 66.0036 175.969 67.9896 175.969 70.0003C168.328 70.0003 160.706 70.0003 153.039 70.0003C153.03 69.8279 153.012 69.6644 153.012 69.501C153.01 67.8015 153.001 66.1043 153.024 64.4049C153.026 64.1608 153.127 63.872 153.281 63.6839C157.994 57.9765 162.719 52.2804 167.441 46.5797C167.564 46.432 167.678 46.2752 167.869 46.0289C162.86 46.0289 157.97 46.0289 153.046 46.0289C153.046 43.9981 153.046 42.0232 153.046 40.0215C160.692 40.0215 168.312 40.0215 175.965 40.0215C175.976 40.1827 175.996 40.3283 175.996 40.4738C175.999 42.1889 176.008 43.9041 175.985 45.6192C175.983 45.861 175.884 46.1498 175.73 46.3357C170.999 52.0497 166.254 57.7526 161.512 63.4577C161.4 63.5943 161.299 63.7354 161.122 63.966Z" fill="white"/>
  <path d="M116.162 70C113.95 70 111.769 70 109.525 70C109.525 69.7515 109.525 69.5209 109.525 69.2902C109.525 58.1084 109.525 46.9265 109.525 35.7447C109.525 35.0215 109.525 35.0215 108.787 35.0215C107.609 35.0215 106.433 35.0215 105.209 35.0215C105.209 33.0175 105.209 31.0449 105.209 29.0342C108.843 29.0342 112.485 29.0342 116.162 29.0342C116.162 42.6902 116.162 56.3306 116.162 70Z" fill="white"/>
</svg>