<svg xmlns="http://www.w3.org/2000/svg" width="250" height="100" viewBox="0 0 250 100" fill="none">
  <path d="M164.14 65.0613C163.179 63.9494 162.448 62.6589 161.987 61.2637L161.863 60.9128L161.738 60.4839L161.66 60.2188L161.535 59.7275L161.473 59.439C161.41 59.1661 161.356 58.8775 161.309 58.589C161.3 58.4842 161.284 58.3801 161.262 58.2771L161.2 57.7702C161.212 57.6588 161.212 57.5464 161.2 57.4349L161.161 57.006L182.995 51.7425C182.867 50.612 182.531 49.515 182.005 48.5063C181.195 46.7428 179.878 45.2605 178.223 44.2487C176.389 43.0888 174.328 42.3338 172.179 42.0341L171.813 41.9795C170.517 41.8363 169.21 41.8363 167.914 41.9795C164.476 42.3513 161.248 43.8164 158.704 46.1592C156.193 48.4443 154.514 51.5007 153.932 54.846V54.9786C153.893 55.1969 153.862 55.4075 153.839 55.6492C153.815 55.8909 153.839 55.9221 153.792 56.0781C153.802 56.1974 153.802 56.3174 153.792 56.4368C153.807 56.6445 153.807 56.853 153.792 57.0606V58.0666C153.843 59.8723 154.223 61.6535 154.915 63.3223C156.148 66.1826 158.185 68.6229 160.78 70.3464C163.374 72.07 166.413 73.0026 169.528 73.0307C172.162 73.0839 174.77 72.5008 177.131 71.3308C179.466 70.1777 181.48 68.4661 182.995 66.3479L182.621 65.4044C181.077 68.352 170.425 72.017 164.14 65.0613ZM174.074 52.109L161.091 55.2281C161.091 54.8382 161.091 54.4483 161.145 54.0818V53.9649C161.139 53.8402 161.139 53.7153 161.145 53.5906L161.208 53.0837C161.325 52.2724 161.508 51.4719 161.753 50.6898C162.194 49.2385 162.868 47.8689 163.75 46.6348C164.554 45.4976 165.587 44.5413 166.783 43.8276C167.928 43.1432 169.239 42.7871 170.573 42.7983C172.434 42.7983 173.796 43.3181 174.659 44.3579C174.973 44.7202 175.236 45.1243 175.439 45.5587C176.304 47.7655 176.242 51.4383 174.074 52.109Z" fill="white"/>
  <path d="M125.174 65.3809C123.614 68.3597 112.978 72.0169 106.693 65.069C105.662 63.8679 104.892 62.4658 104.431 60.9517C103.889 59.2346 103.626 57.4417 103.651 55.6413C103.64 53.9603 103.887 52.2876 104.384 50.6819C104.825 49.2306 105.499 47.861 106.381 46.6269C107.171 45.4989 108.185 44.5459 109.359 43.8275C110.504 43.1435 111.816 42.7874 113.149 42.7982C115.01 42.7982 116.372 43.318 117.235 44.3578C118.125 45.482 118.584 46.8866 118.53 48.3191C118.549 49.063 118.438 49.8045 118.202 50.5103L124.83 48.9507C122.421 42.7124 114.436 41.8468 112.962 41.8468C100.314 41.6441 93.3737 53.5437 97.4598 63.2365C98.6943 66.0985 100.733 68.5407 103.328 70.2667C105.924 71.9928 108.964 72.9286 112.081 72.9604C114.715 73.0137 117.323 72.4305 119.684 71.2605C122.019 70.1077 124.033 68.3961 125.548 66.2776L125.174 65.3809Z" fill="white"/>
  <path d="M153.932 65.3813C152.373 68.3601 141.736 72.0173 135.451 65.0694C134.431 63.8763 133.669 62.4851 133.213 60.9833C132.671 59.2662 132.408 57.4733 132.433 55.6729C132.422 53.9919 132.669 52.3192 133.166 50.7135C133.604 49.2627 134.276 47.8931 135.155 46.6586C135.943 45.5205 136.957 44.557 138.134 43.8279C139.279 43.1435 140.59 42.7874 141.923 42.7986C143.779 42.7986 145.141 43.3185 146.01 44.3582C146.907 45.4792 147.375 46.8841 147.327 48.3195C147.347 49.0641 147.234 49.8062 146.992 50.5107L153.581 48.9511C151.187 42.7128 143.202 41.8551 141.744 41.8551C129.096 41.6523 122.156 53.5519 126.242 63.2447C127.468 66.1139 129.503 68.5646 132.097 70.298C134.692 72.0315 137.735 72.9729 140.855 73.0076C143.495 73.0634 146.108 72.4802 148.474 71.3077C150.809 70.1546 152.823 68.4431 154.338 66.3248L153.932 65.3813Z" fill="white"/>
  <path d="M192.555 66.7693V27L183.198 29.277H183.135V30.1581C183.463 30.1581 186.293 30.9379 186.293 32.8874V66.6289C186.293 70.8865 183.283 71.5026 181.248 71.6351V72.3447L197.6 72.3448V71.6351C195.573 71.5026 192.625 70.8787 192.555 66.7693Z" fill="white"/>
  <path d="M79.4467 27L70.1828 29.2692H70.1126V29.9554C70.4402 29.9554 73.1928 30.9301 72.452 32.6847C68.9352 40.467 57.5269 66.4417 56.9264 67.6114C54.9536 71.5104 52.1541 71.5104 51 71.6351V72.3447H65.5041V71.6195C65.5041 71.6195 59.9988 71.6819 59.9988 68.8045C59.9988 67.0578 62.845 60.1878 63.617 58.3085L82.5113 53.7C82.5581 53.817 87.6423 66.1298 87.6423 68.7265C87.6423 71.5338 83.1273 71.6195 82.9636 71.6195V72.3292H101.889V71.6195C100.546 71.6424 99.225 71.2703 98.0911 70.5495C96.9572 69.8286 96.0599 68.7908 95.5104 67.5646C94.9411 66.4417 79.4467 27 79.4467 27ZM81.8563 52.1092L64.4124 56.3669C64.506 56.1407 73.996 33.9011 74.2611 33.3397C74.6588 34.2676 81.8485 52.1092 81.8485 52.1092H81.8563Z" fill="white"/>
</svg>