<svg xmlns="http://www.w3.org/2000/svg" width="250" height="100" viewBox="0 0 250 100" fill="none">
  <path d="M12 27H57.12V72.4576H12V27Z" fill="white"/>
  <path d="M25.3896 38.3273C25.5772 38.2898 25.8022 38.2148 25.9897 38.2148C26.9649 38.1773 27.9401 38.2523 28.9152 38.2898C29.0653 38.2523 29.1403 38.4023 29.1778 38.5148C30.6405 41.5528 32.1033 44.6283 33.6035 47.6663C33.9411 48.3039 34.2036 48.9416 34.5787 49.5417C34.8787 49.0541 35.1413 48.529 35.4038 48.0039C37.0916 44.7409 38.6669 41.4778 40.3171 38.2148C41.4048 38.2523 42.4925 38.1398 43.5802 38.3273C43.3926 38.9649 43.0176 39.49 42.755 40.0901C40.5797 44.2533 38.3668 48.4165 36.1915 52.5797C36.1165 52.7297 36.0789 52.9172 36.0789 53.1047C36.0789 56.0677 36.0789 59.0682 36.0789 62.0312C35.0287 62.0312 33.9786 62.0312 32.9284 62.0312C32.9284 59.1433 32.9284 56.2178 32.9284 53.3298C32.9284 53.0297 32.9659 52.6922 32.7784 52.3921C30.753 48.604 28.7652 44.8159 26.7399 40.9902C26.2898 40.0901 25.8022 39.2274 25.3896 38.3273Z" fill="#292526"/>
  <path d="M138.359 36.0015C138.771 36.039 138.846 36.5265 138.884 36.8266C138.996 38.3644 139.034 39.8646 139.034 41.4024C139.109 42.8651 139.109 44.2903 139.109 45.7531C139.934 45.1155 140.721 44.4404 141.697 44.0653C143.234 43.3902 145.11 43.3902 146.61 44.1778C148.223 45.003 149.348 46.5782 149.91 48.266C150.436 49.8788 150.586 51.6041 150.473 53.2918C150.323 55.2797 149.798 57.2675 148.635 58.8803C147.96 59.8179 147.06 60.6431 145.935 61.0556C144.134 61.6932 142.147 61.4682 140.534 60.4555C140.046 60.1555 139.596 59.7054 139.146 59.3303C138.959 59.9304 138.809 60.493 138.621 61.0931C137.758 61.0931 136.933 61.1682 136.071 61.0181C136.408 59.6679 136.408 58.2427 136.446 56.8549C136.521 51.9416 136.446 47.0283 136.408 42.1525C136.296 40.2397 136.446 38.3268 136.108 36.4515C136.896 36.2265 137.608 36.0015 138.359 36.0015ZM144.66 46.1282C143.909 45.9781 143.159 45.9781 142.409 46.0531C141.059 46.2407 139.971 47.1783 139.109 48.1535C139.071 48.491 139.109 48.7911 139.071 49.1287V56.93C139.034 57.1925 139.259 57.38 139.446 57.5301C140.759 58.8053 142.709 59.4054 144.51 58.9553C145.372 58.7302 146.122 58.1677 146.535 57.38C147.173 56.2923 147.398 55.0171 147.51 53.7794C147.585 52.8418 147.698 51.8666 147.585 50.9289C147.548 49.8413 147.323 48.6786 146.76 47.7409C146.31 46.9533 145.56 46.3157 144.66 46.1282ZM155.836 36.6766C156.362 36.489 156.962 36.5266 157.487 36.7516C157.974 37.0516 158.312 37.5017 158.537 38.0268C158.874 39.152 157.974 40.4272 156.812 40.5772C155.911 40.6897 154.936 40.1647 154.674 39.2645C154.299 38.2893 154.861 37.0891 155.836 36.6766ZM75.8355 38.7394C77.1107 37.8768 78.611 37.2017 80.1862 37.2017C81.799 37.1642 83.4493 37.2767 84.912 37.9893C85.5121 38.2518 86.1122 38.5519 86.6373 39.002C86.2622 39.6396 85.7747 40.2022 85.3246 40.7648C84.7245 40.4272 84.1619 40.0521 83.5243 39.8271C81.949 39.2645 80.1487 39.152 78.5735 39.7896C77.2607 40.3147 76.1731 41.3274 75.4979 42.5651C75.0479 43.4277 74.6353 44.3654 74.4478 45.3405C74.2977 46.2782 74.2227 47.2533 74.1852 48.2285C74.1477 49.5037 74.0727 50.8164 74.1477 52.0916C74.3728 53.8919 74.9729 55.6922 76.2106 57.0425C77.2607 58.2802 78.836 58.9928 80.4488 59.1428C81.2739 59.1803 82.1366 59.1803 82.9617 58.9928C83.9744 58.7678 84.837 58.2427 85.7747 57.8301C86.2998 58.3552 86.7873 58.9553 87.2374 59.5929C86.5623 59.968 85.8497 60.343 85.0996 60.6431C83.1492 61.4307 80.9364 61.4682 78.8735 61.2432C77.3733 60.9431 75.9855 60.1555 74.8228 59.1803C73.4726 58.0176 72.4974 56.4799 71.9349 54.7921C71.5223 53.6669 71.3348 52.4667 71.2222 51.304C71.1847 50.4039 71.0722 49.5412 71.1847 48.6411C71.2222 46.9533 71.4848 45.303 72.1599 43.7277C72.91 41.7774 74.1102 39.9396 75.8355 38.7394Z" fill="white"/>
  <path d="M199.869 39.6391C200.731 39.3766 201.632 39.1515 202.532 39.0015C202.382 40.6518 202.269 42.3021 202.232 43.9898C203.619 44.0273 205.045 44.0273 206.432 44.0649C206.207 44.7025 205.945 45.3401 205.645 45.9402C204.445 45.9402 203.282 45.9402 202.082 45.9402C202.082 47.4779 202.082 49.0157 202.082 50.5534C202.082 51.7536 202.157 52.9913 202.119 54.1915C202.157 55.5793 202.082 56.967 202.232 58.3172C202.269 58.8798 202.794 59.2924 203.282 59.4424C204.145 59.6299 205.045 59.5549 205.87 59.3674C206.095 59.855 206.207 60.4176 206.17 60.9427C205.42 61.3552 204.52 61.4302 203.657 61.5053C202.457 61.5428 201.107 61.3552 200.244 60.4176C199.531 59.7425 199.606 58.6923 199.494 57.7921C199.419 55.8418 199.456 53.854 199.419 51.9037C199.419 49.9158 199.419 47.8905 199.419 45.9027C198.669 45.9027 197.918 45.9027 197.168 45.9027C197.131 45.2651 197.131 44.5899 197.168 43.9523C197.918 43.9523 198.631 43.9523 199.381 43.9523C199.644 42.5271 199.644 41.0643 199.869 39.6391ZM97.3266 43.5773C98.0392 43.6148 98.7518 43.5773 99.427 43.8023C101.002 44.3274 102.315 45.4151 103.14 46.8403C103.853 48.078 104.34 49.4657 104.378 50.891C104.453 52.8038 104.528 54.7916 103.928 56.6294C103.365 58.3547 102.165 59.8925 100.515 60.7551C98.9019 61.5803 96.9515 61.7678 95.2263 61.2802C93.651 60.8677 92.3008 59.8175 91.4006 58.4673C90.388 57.0045 90.0504 55.2417 90.0129 53.4789C89.9754 51.7911 89.9379 50.0658 90.5005 48.4531C91.0256 46.8778 92.0382 45.4151 93.4635 44.5149C94.1011 44.1024 94.8137 43.7648 95.5638 43.6148C96.1639 43.5398 96.764 43.5773 97.3266 43.5773ZM95.9764 45.7526C95.0762 45.9777 94.2136 46.5028 93.726 47.2904C93.0134 48.4531 92.9009 49.8408 92.8259 51.1535C92.7508 52.1287 92.8259 53.1039 92.9009 54.079C93.0509 55.2417 93.2759 56.4794 93.8385 57.5296C94.4386 58.6548 95.7138 59.2174 96.9515 59.2924C98.1142 59.3674 99.3895 59.0673 100.215 58.1672C100.89 57.4171 101.265 56.4794 101.415 55.4668C101.602 54.229 101.565 52.9913 101.527 51.7536C101.49 50.4784 101.377 49.1282 100.852 47.928C100.552 47.1779 99.9896 46.5403 99.2769 46.1652C98.3018 45.5651 97.0641 45.4901 95.9764 45.7526ZM109.066 44.1399C109.854 43.8773 110.641 43.6898 111.467 43.5398C111.804 44.2899 111.992 45.115 112.067 45.9402C112.629 45.6401 113.042 45.19 113.567 44.8525C114.73 43.9898 116.155 43.4647 117.618 43.5398C117.955 43.5773 118.255 43.6523 118.555 43.8023C119.043 44.0648 119.568 44.3274 119.98 44.7025C120.393 45.115 120.693 45.6401 120.993 46.1652C121.668 45.8651 122.156 45.3401 122.756 44.9275C123.769 44.2149 124.931 43.6523 126.207 43.5398C127.369 43.4272 128.532 43.8023 129.395 44.5899C129.77 44.965 130.182 45.3401 130.37 45.8276C130.557 46.3152 130.632 46.8403 130.67 47.3654C130.857 50.1034 130.745 52.8788 130.857 55.6168C130.857 57.4546 130.857 59.2549 130.857 61.0927C129.957 61.0927 129.057 61.1302 128.119 61.0927C128.119 58.3547 128.119 55.6168 128.119 52.8788C128.119 51.116 128.157 49.3532 128.007 47.5904C127.932 47.0278 127.632 46.5028 127.182 46.1652C126.657 45.8276 125.981 45.8652 125.381 45.9027C124.294 46.0152 123.431 46.6903 122.606 47.3279C122.231 47.6654 121.818 47.9655 121.443 48.3031C121.331 48.3781 121.368 48.5656 121.368 48.6781C121.368 52.8038 121.368 56.9295 121.368 61.0552C120.468 61.0552 119.568 61.0552 118.668 61.0552V51.4161C118.668 50.6284 118.668 49.8408 118.63 49.0907C118.593 48.3031 118.668 47.4404 118.293 46.7278C117.73 45.9402 116.642 45.7901 115.78 46.0152C114.43 46.3527 113.229 47.1779 112.217 48.1155C112.067 48.228 112.067 48.4156 112.067 48.6031C112.067 52.7663 112.067 56.9295 112.067 61.0927C111.279 61.1302 110.491 61.1302 109.704 61.0927C109.629 56.8545 109.666 52.5788 109.554 48.3031C109.516 47.3279 109.516 46.3527 109.404 45.4151C109.291 44.965 109.141 44.5524 109.066 44.1399ZM155.199 43.9898C156.062 43.8773 156.924 43.7273 157.787 43.5398C157.899 45.9402 157.862 48.3406 157.862 50.741C157.862 54.1915 157.862 57.6421 157.862 61.0927C156.962 61.1302 156.062 61.1302 155.161 61.0927C155.124 56.1419 155.161 51.2285 155.161 46.2777C155.199 45.5276 155.161 44.74 155.199 43.9898ZM189.967 43.6523C191.805 43.9898 193.38 45.6776 193.418 47.5904C193.53 50.4409 193.38 53.2914 193.418 56.1419V57.0045C193.418 57.5671 193.455 58.1297 193.605 58.6923C193.718 59.2549 194.243 59.5549 194.655 59.8925C194.28 60.4176 193.943 61.0177 193.455 61.4678C193.155 61.7303 192.78 61.4302 192.555 61.2802C191.917 60.7926 191.467 60.08 191.092 59.3674C190.492 59.705 190.08 60.1925 189.48 60.5301C188.504 61.1677 187.342 61.5428 186.142 61.5053C185.091 61.5428 184.004 61.3552 183.066 60.8677C181.528 60.0425 180.666 58.2422 180.703 56.5544C180.703 54.9042 181.528 53.2914 182.841 52.3162C184.416 51.116 186.442 50.741 188.354 50.5909C189.217 50.5159 190.117 50.5159 191.017 50.4784C191.055 49.6158 190.98 48.7531 190.867 47.8905C190.755 47.1779 190.417 46.4277 189.742 46.0527C188.954 45.6401 188.017 45.6026 187.117 45.7526C185.466 45.9402 183.929 46.6528 182.578 47.6279C182.203 47.1029 181.828 46.6153 181.528 46.0527C181.378 45.7901 181.603 45.5651 181.828 45.4526C183.629 44.4399 185.616 43.5773 187.717 43.6148H188.617C189.067 43.5773 189.517 43.5773 189.967 43.6523ZM188.842 52.2412C188.017 52.3162 187.154 52.3537 186.367 52.5788C185.391 52.8413 184.491 53.4789 183.966 54.3416C183.666 54.8291 183.666 55.4292 183.629 55.9918C183.629 56.5919 183.554 57.267 183.779 57.8296C184.004 58.4297 184.416 58.9923 185.016 59.2174C185.691 59.5174 186.479 59.5549 187.229 59.4799C188.129 59.3674 188.917 58.8798 189.592 58.3547C190.155 57.8671 190.717 57.267 190.755 56.4794C190.867 55.0917 190.83 53.704 190.867 52.3162C190.192 52.3162 189.517 52.1662 188.842 52.2412ZM218.247 43.6898C219.785 44.0649 221.172 45.0025 222.073 46.2777C222.823 47.3279 223.31 48.5281 223.535 49.8033C223.723 51.0035 223.798 52.2412 223.723 53.4414C223.685 55.4292 223.085 57.4171 221.885 58.9923C220.91 60.2676 219.41 61.0177 217.872 61.3177C215.997 61.6553 213.971 61.3177 212.396 60.1925C211.008 59.2174 210.146 57.6421 209.658 56.0669C209.395 55.2417 209.358 54.4166 209.283 53.5539C209.245 52.1287 209.245 50.7035 209.508 49.3157C209.883 47.7405 210.671 46.2027 211.871 45.0775C212.771 44.2524 213.896 43.7273 215.096 43.5773C216.147 43.4647 217.197 43.5023 218.247 43.6898ZM215.284 45.7151C214.009 45.8652 212.996 46.8778 212.583 48.0405C212.058 49.2782 212.133 50.6284 212.096 51.9412C212.133 53.1789 212.133 54.4166 212.358 55.6543C212.508 56.4794 212.771 57.3046 213.334 57.9422C213.859 58.5798 214.646 58.9923 215.434 59.1424C215.734 59.2174 216.072 59.2549 216.372 59.2549H216.672L216.972 59.2174C217.609 59.1424 218.209 58.9548 218.772 58.6548C219.447 58.2797 219.935 57.5671 220.197 56.8545C220.535 55.9918 220.572 55.0542 220.647 54.154C220.685 53.0664 220.722 51.9787 220.647 50.891C220.572 49.7658 220.422 48.6031 219.897 47.5904C219.41 46.8403 218.734 46.2027 217.909 45.8276C217.122 45.6026 216.184 45.6026 215.284 45.7151ZM228.336 44.1774C229.161 43.9523 229.949 43.6898 230.774 43.5023C231.224 44.3274 231.299 45.3026 231.337 46.2027C231.749 45.9027 232.087 45.4901 232.462 45.115C233.624 43.9523 235.35 43.2397 237 43.5398V43.7648C236.625 44.5524 236.4 45.4151 236.062 46.2402C236.025 46.3902 235.8 46.3527 235.687 46.3527C234.975 46.3527 234.187 46.3527 233.549 46.7278C232.912 47.1029 232.349 47.5904 231.899 48.1905C231.449 48.7531 231.524 49.5408 231.524 50.2159C231.487 51.191 231.449 52.1662 231.487 53.1414C231.487 55.7668 231.487 58.4297 231.487 61.0552C230.586 61.0927 229.686 61.0927 228.786 61.0552C228.786 58.1297 228.786 55.1667 228.786 52.2412C228.786 50.2534 228.786 48.228 228.711 46.2402C228.636 45.5651 228.411 44.89 228.336 44.1774ZM163.188 44.2149C163.975 43.9523 164.8 43.6523 165.626 43.6523C165.926 44.4399 166.113 45.2651 166.226 46.0902C166.938 45.6401 167.538 45.04 168.289 44.6274C169.714 43.8023 171.439 43.2022 173.052 43.8023C173.989 44.1399 174.927 44.665 175.49 45.5276C175.94 46.1277 176.052 46.9528 176.127 47.703C176.277 50.3659 176.24 53.0288 176.24 55.7293C176.24 57.5296 176.277 59.2924 176.277 61.0927C175.377 61.1302 174.477 61.1302 173.577 61.0927C173.577 58.1672 173.502 55.2042 173.502 52.2787C173.464 50.6284 173.539 49.0157 173.352 47.3654C173.089 46.5778 172.339 45.9402 171.514 45.9027C170.914 45.8652 170.276 45.8652 169.676 46.0902C168.401 46.5778 167.238 47.3654 166.188 48.228C166.151 52.5038 166.188 56.817 166.188 61.0927C165.401 61.0927 164.613 61.1302 163.825 61.0927C163.825 58.6548 163.75 56.2169 163.75 53.779C163.713 51.2661 163.75 48.7906 163.6 46.2777C163.563 45.5651 163.338 44.89 163.188 44.2149Z" fill="white"/>
</svg>